<svg width="69" height="69" viewBox="0 0 69 69" fill="none" xmlns="http://www.w3.org/2000/svg">
<path d="M34.2599 0.0330245C20.2275 0.0330245 6.90223 -1.21426 1.81252 11.8378C-0.28984 17.2286 0.015466 24.2296 0.015466 34.2542C0.015466 43.0509 -0.266652 51.3185 1.81252 56.6668C6.89063 69.7266 20.3241 68.4755 34.2522 68.4755C47.6895 68.4755 61.5442 69.8733 66.6957 56.6668C68.8019 51.222 68.4928 44.3252 68.4928 34.2542C68.4928 20.8855 69.2309 12.2549 62.7422 5.77518C56.1723 -0.78949 47.2876 0.0330245 34.2445 0.0330245H34.2599ZM31.1914 6.19995C60.4621 6.15361 64.1876 2.90218 62.1316 48.0709C61.4012 64.0462 49.2276 62.2931 34.2638 62.2931C6.97952 62.2931 6.195 61.5131 6.195 34.2388C6.195 6.64789 8.35919 6.2154 31.1914 6.19223V6.19995ZM52.5396 11.8803C50.2711 11.8803 48.4315 13.7184 48.4315 15.9852C48.4315 18.2519 50.2711 20.09 52.5396 20.09C54.8081 20.09 56.6477 18.2519 56.6477 15.9852C56.6477 13.7184 54.8081 11.8803 52.5396 11.8803ZM34.2599 16.6802C24.5481 16.6802 16.6759 24.5501 16.6759 34.2542C16.6759 43.9584 24.5481 51.8244 34.2599 51.8244C43.9717 51.8244 51.8401 43.9584 51.8401 34.2542C51.8401 24.5501 43.9717 16.6802 34.2599 16.6802ZM34.2599 22.8472C49.3513 22.8472 49.3706 45.6613 34.2599 45.6613C19.1724 45.6613 19.1492 22.8472 34.2599 22.8472Z" fill="white"/>
<path d="M34.2599 0.0330245C20.2275 0.0330245 6.90223 -1.21426 1.81252 11.8378C-0.28984 17.2286 0.015466 24.2296 0.015466 34.2542C0.015466 43.0509 -0.266652 51.3185 1.81252 56.6668C6.89063 69.7266 20.3241 68.4755 34.2522 68.4755C47.6895 68.4755 61.5442 69.8733 66.6957 56.6668C68.8019 51.222 68.4928 44.3252 68.4928 34.2542C68.4928 20.8855 69.2309 12.2549 62.7422 5.77518C56.1723 -0.78949 47.2876 0.0330245 34.2445 0.0330245H34.2599ZM31.1914 6.19995C60.4621 6.15361 64.1876 2.90218 62.1316 48.0709C61.4012 64.0462 49.2276 62.2931 34.2638 62.2931C6.97952 62.2931 6.195 61.5131 6.195 34.2388C6.195 6.64789 8.35919 6.2154 31.1914 6.19223V6.19995ZM52.5396 11.8803C50.2711 11.8803 48.4315 13.7184 48.4315 15.9852C48.4315 18.2519 50.2711 20.09 52.5396 20.09C54.8081 20.09 56.6477 18.2519 56.6477 15.9852C56.6477 13.7184 54.8081 11.8803 52.5396 11.8803ZM34.2599 16.6802C24.5481 16.6802 16.6759 24.5501 16.6759 34.2542C16.6759 43.9584 24.5481 51.8244 34.2599 51.8244C43.9717 51.8244 51.8401 43.9584 51.8401 34.2542C51.8401 24.5501 43.9717 16.6802 34.2599 16.6802ZM34.2599 22.8472C49.3513 22.8472 49.3706 45.6613 34.2599 45.6613C19.1724 45.6613 19.1492 22.8472 34.2599 22.8472Z" fill="url(#paint0_linear_232:2047)"/>
<defs>
<linearGradient id="paint0_linear_232:2047" x1="5.08178" y1="64.0542" x2="68.498" y2="9.57098" gradientUnits="userSpaceOnUse">
<stop stop-color="#FFDD55"/>
<stop offset="0.5" stop-color="#FF543E"/>
<stop offset="1" stop-color="#C837AB"/>
</linearGradient>
</defs>
</svg>
