<svg width="91" height="53" viewBox="0 0 91 53" fill="none" xmlns="http://www.w3.org/2000/svg">
<path d="M19.7734 5.39761C22.2903 11.6729 25.4801 17.5894 29.6814 22.9008C30.2386 23.6076 30.941 24.236 31.6809 24.7477C32.7617 25.4971 33.7814 25.2337 34.2209 23.9855C34.6857 22.6756 35.1122 20.021 35.1376 18.6455C35.207 15.0513 35.1272 12.6959 34.9359 9.1062C34.812 6.80706 34.0024 4.78828 30.6527 4.17894C29.6182 3.99002 29.5221 3.13035 30.1867 2.27276C31.5703 0.487336 33.4977 0.202793 35.5879 0.0901857C38.9754 -0.0945458 42.3754 0.0562175 45.767 0.0901857C47.1486 0.102982 48.5384 0.215358 49.8989 0.51479C51.6736 0.905425 52.6239 2.16225 52.9163 3.91138C53.0677 4.81364 53.1456 5.74125 53.1244 6.65421C53.0362 10.5773 52.8491 14.4983 52.8048 18.4193C52.7859 19.9584 52.8972 21.5358 53.2233 23.0346C53.6796 25.1234 55.0883 25.6478 56.5288 24.1386C58.358 22.2217 59.9709 20.0647 61.4847 17.874C64.2351 13.8892 66.2892 9.51615 68.0577 5.00721C68.9723 2.68061 69.6726 2.17528 72.1515 2.169C76.8111 2.1583 81.4706 2.15411 86.1302 2.169C86.9566 2.17319 87.8208 2.25182 88.6008 2.5024C89.8666 2.91002 90.3692 3.95233 90.0727 5.275C89.3809 8.37449 87.7219 11.0089 85.9452 13.5416C83.0939 17.6048 80.106 21.5705 77.1876 25.5869C76.8155 26.0985 76.4875 26.6441 76.1824 27.198C75.091 29.1894 75.1669 30.3059 76.7585 31.9638C79.2923 34.6026 82.0048 37.0714 84.4586 39.7823C86.2418 41.7546 87.8922 43.8944 89.3053 46.1467C91.0926 48.9956 89.9885 51.6789 86.6497 52.1566C84.5491 52.456 74.2884 52.1589 73.7582 52.1566C70.9995 52.144 68.5815 51.178 66.6342 49.2865C64.4685 47.1807 62.5003 44.8708 60.4207 42.6736C59.7942 42.0112 59.1254 41.3765 58.4044 40.8223C56.7032 39.5125 55.0337 39.8033 54.2389 41.8202C53.5597 43.5526 52.973 48.1018 52.9456 48.4903C52.8027 50.5219 51.5222 51.8169 49.268 51.942C42.7602 52.2987 36.4541 51.5663 30.5794 48.3884C25.6002 45.6965 21.6241 41.8902 18.1799 37.4513C12.7087 30.4008 8.38719 22.6507 4.44176 14.673C4.24012 14.2652 0.243993 5.68006 0.136606 5.27453C-0.220351 3.91673 0.11264 2.61966 1.24896 2.17319C1.95734 1.89492 15.1327 2.17225 15.3519 2.18412C17.4542 2.29905 18.8878 3.19456 19.7734 5.39761Z" fill="#44678D"/>
</svg>
