<svg width="60" height="59" viewBox="0 0 60 59" fill="none" xmlns="http://www.w3.org/2000/svg">
<path d="M52.75 0.625H7.25C5.52609 0.625 3.87279 1.30104 2.65381 2.5044C1.43482 3.70776 0.75 5.33986 0.75 7.04167V51.9583C0.75 53.6601 1.43482 55.2922 2.65381 56.4956C3.87279 57.699 5.52609 58.375 7.25 58.375H52.75C56.325 58.375 59.25 55.4875 59.25 51.9583V7.04167C59.25 5.33986 58.5652 3.70776 57.3462 2.5044C56.1272 1.30104 54.4739 0.625 52.75 0.625ZM52.75 51.9583H7.25V13.4583H52.75V51.9583ZM34.875 32.7083C34.875 35.3713 32.6975 37.5208 30 37.5208C27.3025 37.5208 25.125 35.3713 25.125 32.7083C25.125 30.0454 27.3025 27.8958 30 27.8958C32.6975 27.8958 34.875 30.0454 34.875 32.7083ZM30 19.875C21.1275 19.875 13.555 25.2008 10.5 32.7083C13.555 40.2158 21.1275 45.5417 30 45.5417C38.8725 45.5417 46.445 40.2158 49.5 32.7083C46.445 25.2008 38.8725 19.875 30 19.875ZM30 40.7292C27.8451 40.7292 25.7785 39.8841 24.2548 38.3799C22.731 36.8757 21.875 34.8356 21.875 32.7083C21.875 30.5811 22.731 28.5409 24.2548 27.0367C25.7785 25.5325 27.8451 24.6875 30 24.6875C32.1549 24.6875 34.2215 25.5325 35.7452 27.0367C37.269 28.5409 38.125 30.5811 38.125 32.7083C38.125 34.8356 37.269 36.8757 35.7452 38.3799C34.2215 39.8841 32.1549 40.7292 30 40.7292Z" fill="#102046" fill-opacity="0.5"/>
</svg>
