<svg width="29" height="29" viewBox="0 0 29 29" fill="none" xmlns="http://www.w3.org/2000/svg">
<path d="M16.0409 13.0168H15.6909V13.3668V16.7094V17.0594H16.0409H23.5059C22.5887 21.3657 19.0647 24.3816 14.7039 24.3816C9.41531 24.3816 5.02609 19.9924 5.02609 14.7039C5.02609 9.41531 9.41531 5.02609 14.7039 5.02609C17.4056 5.02609 19.7218 6.18221 21.4 7.98943L21.6471 8.25558L21.9039 7.99876L24.3106 5.59209L24.5581 5.34461L24.3106 5.09712C21.8485 2.63496 18.5538 0.983496 14.7039 0.983496C7.15686 0.983496 0.983496 7.15686 0.983496 14.7039C0.983496 22.2509 7.15686 28.4242 14.7039 28.4242C22.274 28.4242 27.7557 22.2269 27.7557 14.7039V13.3668V13.0168H27.4057H16.0409Z" fill="white" stroke="white" stroke-width="0.7"/>
</svg>
