<svg width="32" height="32" viewBox="0 0 32 32" fill="none" xmlns="http://www.w3.org/2000/svg">
<path opacity="0.7" d="M30.5392 1.46121C28.5796 -0.498368 26.837 0.0795467 26.837 0.0795467L11.4749 15.429L8.89112 23.109L16.5677 20.5235L31.9209 5.16342C31.9209 5.16342 32.4971 3.42078 30.5392 1.46121ZM17.0798 18.8502L16.2423 19.686L13.623 20.5751C13.42 20.081 13.1187 19.6333 12.7374 19.2592C12.363 18.8783 11.9154 18.577 11.4215 18.3737L12.3106 15.7544L13.1482 14.9186C13.1482 14.9186 14.5281 14.7604 15.8813 16.1153C17.2363 17.4686 17.0798 18.8502 17.0798 18.8502ZM26.6734 28.4436H3.55645V5.32701H12.4476L16.004 1.77061H3.55645C1.6004 1.77061 0 3.37099 0 5.32701V28.4436C0 30.3996 1.6004 32 3.55645 32H26.6734C28.6294 32 30.2298 30.3996 30.2298 28.4436V15.9962L26.6734 19.5526V28.4436Z" fill="#102046"/>
</svg>
