<svg width="28" height="28" viewBox="0 0 28 28" fill="none" xmlns="http://www.w3.org/2000/svg">
<path d="M14.0003 0.666992C6.65339 0.666992 0.666992 6.65339 0.666992 14.0003C0.666992 21.3473 6.65339 27.3337 14.0003 27.3337C21.3473 27.3337 27.3337 21.3473 27.3337 14.0003C27.3337 6.65339 21.3473 0.666992 14.0003 0.666992ZM12.9119 9.23842C12.9119 8.6942 13.3201 8.14999 14.0003 8.14999C14.6806 8.14999 15.0888 8.55815 15.0888 9.23842V14.6806C15.0888 15.2248 14.6806 15.769 14.0003 15.769C13.3201 15.769 12.9119 15.3609 12.9119 14.6806V9.23842ZM14.0003 20.1228C13.3201 20.1228 12.6398 19.4425 12.6398 18.7622C12.6398 18.082 13.3201 17.4017 14.0003 17.4017C14.6806 17.4017 15.3609 18.082 15.3609 18.7622C15.3609 19.4425 14.6806 20.1228 14.0003 20.1228Z" fill="#E8427E"/>
</svg>
