<svg width="31" height="30" viewBox="0 0 31 30" fill="none" xmlns="http://www.w3.org/2000/svg">
<path d="M21.4833 0.566414C23.248 0.566289 24.9744 1.06329 26.4507 1.99646C27.927 2.92964 29.0891 4.2584 29.7943 5.81977C30.4995 7.38114 30.7172 9.10722 30.4208 10.7863C30.1243 12.4654 29.3266 14.0244 28.1254 15.2722L27.8383 15.5552L14.6524 28.282L14.5723 28.355L14.4877 28.4206C13.4135 29.3143 12.0291 29.7833 10.6118 29.7334C9.1946 29.6835 7.84923 29.1185 6.84536 28.1517C5.8415 27.1848 5.25331 25.8874 5.19867 24.5196C5.14402 23.1518 5.62697 21.8146 6.55072 20.776L6.77585 20.5368L6.79851 20.5208L17.8132 9.86912C18.0964 9.59529 18.4806 9.44122 18.8814 9.44081C19.2822 9.4404 19.6668 9.59368 19.9505 9.86693C20.2342 10.1402 20.3938 10.511 20.3942 10.8979C20.3947 11.2847 20.2358 11.6559 19.9527 11.9297L8.938 22.5814L8.91987 22.5931C8.4753 23.0513 8.22478 23.6537 8.21774 24.2814C8.2107 24.9091 8.44764 25.5166 8.88183 25.984C9.31602 26.4514 9.91592 26.7448 10.5632 26.8063C11.2105 26.8678 11.8581 26.6929 12.3784 26.3162L12.5627 26.1704L12.5642 26.1718L25.7124 13.4843L25.9527 13.2437C27.0105 12.1215 27.5737 10.6456 27.5228 9.12917C27.4719 7.61277 26.8108 6.17518 25.6799 5.1214C24.549 4.06763 23.0372 3.48059 21.4653 3.48483C19.8934 3.48907 18.385 4.08426 17.2602 5.14412L17.026 5.37746L16.9988 5.39496L2.90785 19.0012C2.76746 19.1366 2.60083 19.244 2.41745 19.3172C2.23407 19.3905 2.03754 19.4281 1.83908 19.4281C1.64062 19.428 1.44412 19.3902 1.26079 19.3168C1.07747 19.2435 0.910907 19.136 0.770625 19.0005C0.630342 18.865 0.519084 18.7041 0.443202 18.5272C0.367319 18.3502 0.328299 18.1605 0.328369 17.9689C0.328511 17.5821 0.487867 17.2111 0.77138 16.9377L14.8352 3.35621L14.9047 3.2935C15.7512 2.43065 16.7713 1.74372 17.9025 1.27479C19.0337 0.805859 20.2522 0.564811 21.4833 0.566414Z" fill="#102046" fill-opacity="0.6"/>
</svg>
