<svg width="41" height="39" viewBox="0 0 41 39" fill="none" xmlns="http://www.w3.org/2000/svg">
<path d="M20.4136 3.73291C11.1301 3.73291 3.57739 10.8357 3.57739 19.5662C3.57739 28.2967 11.1301 35.3996 20.4136 35.3996C29.697 35.3996 37.2497 28.2967 37.2497 19.5662C37.2497 10.8357 29.697 3.73291 20.4136 3.73291ZM20.4136 32.2329C12.9871 32.2329 6.94463 26.5503 6.94463 19.5662C6.94463 12.5822 12.9871 6.89958 20.4136 6.89958C27.84 6.89958 33.8825 12.5822 33.8825 19.5662C33.8825 26.5503 27.84 32.2329 20.4136 32.2329Z" fill="#102046" fill-opacity="0.6"/>
<path d="M25.1765 24.0443C24.5611 24.6211 23.8342 25.0822 23.035 25.4028C21.596 25.9741 19.9906 26.0575 18.4935 25.6387C16.9963 25.2199 15.7004 24.325 14.8273 23.1069L12.0359 24.8787C12.7639 25.8891 13.6902 26.7596 14.765 27.4437C15.8588 28.1393 17.0877 28.6251 18.3814 28.8734C19.7229 29.1308 21.1059 29.1308 22.4474 28.8734C23.741 28.6248 24.9698 28.139 26.0638 27.4437C26.5908 27.108 27.0942 26.7185 27.5555 26.2863C28.0134 25.8572 28.4309 25.3822 28.7912 24.8787L25.9998 23.1069C25.7578 23.4434 25.4821 23.7573 25.1765 24.0443Z" fill="#102046" fill-opacity="0.6"/>
<path d="M14.521 19.5664C15.9158 19.5664 17.0465 18.5031 17.0465 17.1914C17.0465 15.8797 15.9158 14.8164 14.521 14.8164C13.1263 14.8164 11.9956 15.8797 11.9956 17.1914C11.9956 18.5031 13.1263 19.5664 14.521 19.5664Z" fill="#102046" fill-opacity="0.6"/>
<path d="M26.2944 19.5442C27.6826 19.5442 28.808 18.4859 28.808 17.1803C28.808 15.8748 27.6826 14.8164 26.2944 14.8164C24.9062 14.8164 23.7808 15.8748 23.7808 17.1803C23.7808 18.4859 24.9062 19.5442 26.2944 19.5442Z" fill="#102046" fill-opacity="0.6"/>
</svg>
