<svg width="44" height="35" viewBox="0 0 44 35" fill="none" xmlns="http://www.w3.org/2000/svg">
<path d="M43.1109 4.51732C41.5408 5.19548 39.8677 5.64498 38.1234 5.86324C39.9178 4.80833 41.2874 3.15062 41.9313 1.15254C40.2583 2.13469 38.411 2.82844 36.4424 3.21558C34.8538 1.55008 32.5896 0.518555 30.1196 0.518555C25.3274 0.518555 21.4694 4.34844 21.4694 9.04355C21.4694 9.7191 21.5274 10.3687 21.6699 10.9871C14.4737 10.6415 8.10603 7.24553 3.82839 2.07233C3.08159 3.34809 2.64353 4.80833 2.64353 6.3803C2.64353 9.33196 4.18728 11.9484 6.48839 13.4632C5.0977 13.4373 3.73339 13.0397 2.57756 12.4135C2.57756 12.4395 2.57756 12.4733 2.57756 12.5071C2.57756 16.6487 5.57798 20.0889 9.51256 20.8814C8.80798 21.071 8.04006 21.162 7.24312 21.162C6.68895 21.162 6.1295 21.1308 5.60437 21.0165C6.72589 24.3916 9.90839 26.873 13.6926 26.9536C10.7476 29.2219 7.00826 30.5886 2.9602 30.5886C2.25034 30.5886 1.56951 30.5574 0.888672 30.4716C4.72298 32.9062 9.26714 34.2963 14.1676 34.2963C30.0959 34.2963 38.8042 21.3049 38.8042 10.0439C38.8042 9.66714 38.791 9.30338 38.7726 8.94221C40.4905 7.7418 41.9339 6.24259 43.1109 4.51732Z" fill="white"/>
</svg>
