<svg width="54" height="32" viewBox="0 0 54 32" fill="none" xmlns="http://www.w3.org/2000/svg">
<path d="M12.3348 3.93705C13.7935 7.64233 15.6421 11.1358 18.077 14.2719C18.3999 14.6892 18.807 15.0603 19.2358 15.3624C19.8622 15.8049 20.4532 15.6494 20.7079 14.9123C20.9772 14.1389 21.2245 12.5715 21.2391 11.7593C21.2793 9.63715 21.2331 8.24636 21.1223 6.12681C21.0504 4.76927 20.5813 3.57726 18.6399 3.21748C18.0404 3.10593 17.9847 2.59833 18.3699 2.09197C19.1717 1.03775 20.2888 0.86974 21.5001 0.803251C23.4634 0.694175 25.4338 0.783194 27.3995 0.803251C28.2002 0.810806 29.0056 0.877159 29.7941 1.05396C30.8226 1.28461 31.3734 2.02671 31.5429 3.0595C31.6307 3.59224 31.6758 4.13995 31.6635 4.67901C31.6124 6.99543 31.5039 9.31061 31.4783 11.6258C31.4673 12.5345 31.5318 13.4659 31.7208 14.3509C31.9852 15.5842 32.8017 15.8939 33.6365 15.0027C34.6967 13.8709 35.6314 12.5973 36.5087 11.3038C38.1027 8.95096 39.2932 6.36886 40.3181 3.70653C40.8482 2.33278 41.2541 2.03441 42.6907 2.0307C45.3912 2.02438 48.0917 2.0219 50.7922 2.0307C51.2711 2.03317 51.7719 2.0796 52.224 2.22755C52.9576 2.46824 53.2489 3.08367 53.077 3.86465C52.6761 5.69476 51.7146 7.25026 50.6849 8.74572C49.0325 11.1448 47.3008 13.4864 45.6094 15.8579C45.3937 16.16 45.2037 16.4821 45.0269 16.8092C44.3944 17.985 44.4383 18.6443 45.3608 19.6232C46.8292 21.1813 48.4013 22.639 49.8234 24.2397C50.8568 25.4042 51.8133 26.6677 52.6323 27.9976C53.6681 29.6797 53.0283 31.2641 51.0932 31.5461C49.8758 31.7229 43.9292 31.5475 43.6219 31.5461C42.0231 31.5387 40.6217 30.9683 39.4932 29.8515C38.238 28.6081 37.0973 27.2442 35.8921 25.9469C35.529 25.5557 35.1414 25.181 34.7235 24.8538C33.7376 24.0803 32.77 24.2521 32.3094 25.443C31.9158 26.4659 31.5758 29.1519 31.5599 29.3814C31.4771 30.5809 30.7349 31.3455 29.4285 31.4195C25.6569 31.6301 22.0021 31.1976 18.5974 29.3212C15.7117 27.7318 13.4074 25.4843 11.4112 22.8633C8.24039 18.7003 5.73584 14.1242 3.44924 9.41378C3.33238 9.17296 1.01641 4.10382 0.954171 3.86438C0.747294 3.06266 0.940281 2.29679 1.59884 2.03317C2.00939 1.86887 9.64525 2.03262 9.77226 2.03963C10.9907 2.10749 11.8215 2.63625 12.3348 3.93705Z" fill="white"/>
</svg>
